# xmcd
#
# Track frame offsets:
#	150
#	12464
#	28583
#	39416
#	54716
#	66827
#	82616
#	93834
#	104383
#	127044
#	136871
#	147556
#	170817
#	182904
#	194758
#	212618
#	225483
#	240088
#	254572
#	274799
#
# Disc length: 3903 seconds
#
# Revision: 0
# Processed by: cddbd v1.5.1PL2 Copyright (c) Steve Scherf et al.
# Submitted via: EasyCDDAExtractor 9.0.0.1
#
DISCID=1d0f3d14
DTITLE=Various Artist - Maestros del blues CD 2
DYEAR=1900
DGENRE=Blues
TTITLE0=John Lee Hooker - Walking the boogie
TTITLE1=B.B. King - Lonely niught
TTITLE2=Ray Charles - Sentimental blues
TTITLE3=Etta James - Jump into love
TTITLE4=The Inlavables - Don't touch me
TTITLE5=Memphis Slim - Fourty four blues
TTITLE6=Big Bill Broonzy and Washboard - Jacqueline
TTITLE7=Sonny Boy Williamson - Let your conscience be your guide
TTITLE8=Eric Bell - Days of innocence
TTITLE9=Buddy Guy - 100 dollar bill (money)
TTITLE10=Howlin Wolf - Somebody in my home
TTITLE11=Lightnin Hopkins - Last night
TTITLE12=Elmore James - Coming home
TTITLE13=Koko Taylor - I'm a little mixed up
TTITLE14=The Dells - Oh what a night
TTITLE15=Lowell Fulson - Rolling blues
TTITLE16=Steel Blues - Living the blues
TTITLE17=Bo Diddley - Say man
TTITLE18=Lightnin Hopkins - Glory me
TTITLE19=Hot Fussion Blues - Rail road boogie blues
EXTD=
EXTT0=
EXTT1=
EXTT2=
EXTT3=
EXTT4=
EXTT5=
EXTT6=
EXTT7=
EXTT8=
EXTT9=
EXTT10=
EXTT11=
EXTT12=
EXTT13=
EXTT14=
EXTT15=
EXTT16=
EXTT17=
EXTT18=
EXTT19=
PLAYORDER=
